<svg xmlns="http://www.w3.org/2000/svg" width="20.518" height="29.97" viewBox="0 0 20.518 29.97">
  <path id="Fill-34" d="M7360.6-244.857l-15.452,2.846a2.117,2.117,0,0,0-1.625,1.447,2.19,2.19,0,0,0,.395,2.138c3.646,4.387,7.276,8.743,10.922,13.13a1.791,1.791,0,0,1,.363,1.557,1.8,1.8,0,0,1-1.025,1.211l-13.606,5.881-.489-1.73,12.974-5.629a.323.323,0,0,0,.173-.2.325.325,0,0,0-.063-.267c-7.7-9.23-3.819-4.591-10.622-12.752a3.888,3.888,0,0,1-.773-3.947,3.78,3.78,0,0,1,2.921-2.595l15.31-2.846Z" transform="translate(-7340.082 246.618)" fill="#8989a2" fill-rule="evenodd"/>
</svg>
