<svg xmlns="http://www.w3.org/2000/svg" width="23.106" height="29.671" viewBox="0 0 23.106 29.671">
  <path id="Fill-30" d="M7338.439-217.464h15.2a5.133,5.133,0,0,0,4.656-2.563,4.875,4.875,0,0,0-.647-5.378l-8.806-10.567a1.377,1.377,0,0,1,.173-1.918l8.965-7.469,1.136,1.226-8.523,7.422,8.459,10.142a6.719,6.719,0,0,1,.979,7.186,6.678,6.678,0,0,1-6.218,3.68l-15.373.015a.881.881,0,0,1-.884-.88v-.016a.881.881,0,0,1,.884-.881" transform="translate(-7337.555 245.359)" fill="#8989a2" fill-rule="evenodd"/>
</svg>
