<svg xmlns="http://www.w3.org/2000/svg" width="55.726" height="15.925" viewBox="0 0 55.726 15.925">
  <path id="Fill-46" d="M7501.054-210.462a5.826,5.826,0,0,0-.426-.723l-3.173-5.095,3.6-5.582-4.277-.016c-.111.031-2.873,4.717-3.236,5.315v-9.56c-.41-.031-3.251-.047-3.6.016v15.661c.742-.015,3.14.031,3.6-.015l.016-5.283c.11.11,2.936,4.969,3.062,5.283Zm10.323-4.765a6.165,6.165,0,0,0-.553-4.324,5.035,5.035,0,0,0-2.857-2.248,6.143,6.143,0,0,0-4.373.22,5.7,5.7,0,0,0-3.077,6.793c.694,2.767,3.046,4.183,5.744,4.481a9.977,9.977,0,0,0,4.467-.456v-2.563h-2.936a5.014,5.014,0,0,1-2.73-.645,2.043,2.043,0,0,1-.963-1.258Zm-7.372-2.374a1.848,1.848,0,0,1,1.973-1.808,1.694,1.694,0,0,1,1.8,1.808Zm-21.717-1.368a.756.756,0,0,1,.188.016c1.216.031,2.368.566,2.494,1.714a10.352,10.352,0,0,0-4.813.692,3.053,3.053,0,0,0-1.831,3.507,3.5,3.5,0,0,0,3.74,2.814,3.681,3.681,0,0,0,3.125-1.4l.553,1.179h2.683l-.062-6.164c-.016-1.51-.094-2.673-1.01-3.711-1.468-1.682-3.946-2.076-6.267-1.62a10.055,10.055,0,0,0-2.051.661v2.311Zm2.682,5.535c-.331.582-2.746,1.038-3.029-.2-.364-1.635,2.556-1.541,3.029-1.384Zm-29.057,2.107c.1.189.458.314.664.409a7.99,7.99,0,0,0,2.351.613c2.257.267,4.593-.142,5.777-2.154a3.437,3.437,0,0,0,.111-3.161c-1.168-2.186-4.782-1.824-5.509-2.532a.556.556,0,0,1,.032-.755,2.378,2.378,0,0,1,1.736-.377h3.488v-1.73c-.094-.22-1.042-.566-1.341-.676a7.74,7.74,0,0,0-5.16.063,3.513,3.513,0,0,0-1.689,5.173c1.009,1.321,2.494,1.415,4.23,1.824.457.11,1.246.236,1.2.771-.079.739-1.562.8-2.178.818h-3.709Zm13.952-6.746a2.89,2.89,0,0,1,1.974-.9c1.61-.016,1.941,1.054,1.941,2.28l-.016.991v5.252h3.6c.015-2.264,0-4.513.031-6.777a6.539,6.539,0,0,0-.489-3.208,3.615,3.615,0,0,0-3.314-1.666,4.634,4.634,0,0,0-3.741,1.666v-5.708h-3.6v15.693h3.6Z" transform="translate(-7455.786 226.151)" fill="#8989a2" fill-rule="evenodd"/>
</svg>
