<svg xmlns="http://www.w3.org/2000/svg" width="20.518" height="29.373" viewBox="0 0 20.518 29.373">
  <path id="Fill-32" d="M7340.334-218.346l15.451-2.846a2.19,2.19,0,0,0,1.625-1.447,2.185,2.185,0,0,0-.394-2.138c-3.646-4.387-7.276-8.743-10.922-13.145a1.749,1.749,0,0,1-.363-1.541,1.759,1.759,0,0,1,1.025-1.211l13.606-5.881.489,1.73-12.974,5.629a.259.259,0,0,0-.173.2.282.282,0,0,0,.063.267c3.551,4.261,7.07,8.491,10.623,12.752a3.888,3.888,0,0,1,.773,3.947,3.8,3.8,0,0,1-2.92,2.595l-12.216,2.248Z" transform="translate(-7340.334 246.555)" fill="#8989a2" fill-rule="evenodd"/>
</svg>
